<?xml version="1.0" encoding="UTF-8"?>
<svg width="37px" height="36px" viewBox="0 0 37 36" version="1.1" xmlns="http://www.w3.org/2000/svg" xmlns:xlink="http://www.w3.org/1999/xlink">
    <title>编组 2备份 6</title>
    <g id="BI优化" stroke="none" stroke-width="1" fill="none" fill-rule="evenodd">
        <g id="全屏组件" transform="translate(-287.000000, -151.000000)">
            <g id="编组-2备份-6" transform="translate(287.400000, 151.000000)">
                <rect id="矩形" x="0" y="0" width="36" height="36"></rect>
                <g id="编组" transform="translate(0.500000, 0.500000)" fill="#0B8CF0" fill-rule="nonzero">
                    <path d="M9.4999779,1.20086042e-07 C10.328405,1.20086042e-07 10.9999779,0.671572995 10.9999779,1.50000012 C10.9999779,2.32842724 10.328405,3.00000012 9.4999779,3.00000012 L5.148,3 L11.4441558,9.23355383 C12.0328923,9.81637521 12.0376875,10.7661106 11.4548662,11.3548471 C10.8720448,11.9435837 9.92230942,11.9483789 9.33357286,11.3655575 L3,5.096 L3.00000012,9.50000012 C3.00000012,10.2796962 2.40511204,10.9204488 1.64446013,10.9931335 L1.50000012,11.0000001 C0.671572995,11.0000001 1.20086042e-07,10.3284272 1.20086042e-07,9.50000012 L1.20086042e-07,1.50000012 C1.20086042e-07,1.20674388 0.084154951,0.933143053 0.229632361,0.702029892 C0.245124157,0.677163588 0.261838083,0.652272117 0.27937865,0.627788241 C0.292521327,0.609625189 0.305687862,0.592069231 0.319224306,0.574817339 C0.331915055,0.558537051 0.34512121,0.542418993 0.358714037,0.526516938 C0.375074761,0.507419711 0.391741252,0.48885744 0.408854908,0.470721712 C0.417020261,0.462064531 0.425446004,0.45334773 0.433998274,0.444708661 L0.46355822,0.415659151 C0.482391862,0.397652392 0.501693835,0.3801314 0.521444021,0.363116291 L0.433998274,0.444708661 C0.475843404,0.402438835 0.519579933,0.36317916 0.564938455,0.326930994 C0.587956978,0.308657206 0.611893956,0.290677551 0.636370758,0.273412038 C0.653604859,0.261097476 0.670710175,0.249558425 0.687995152,0.238410057 C0.70862983,0.225258033 0.729934666,0.212246772 0.751580492,0.199760501 C0.770936198,0.188467153 0.79012045,0.177976989 0.80947834,0.167936734 C0.835889312,0.154321241 0.86281058,0.141339865 0.890163889,0.129153144 C0.905133675,0.122466078 0.920250376,0.116043282 0.935447997,0.109879659 C0.967386964,0.0968902214 0.999602704,0.0850712496 1.03231435,0.0743467456 C1.045025,0.0702821625 1.05779335,0.0662938253 1.0706028,0.0624800167 C1.09306813,0.0556654693 1.11559895,0.0495185948 1.13833431,0.0438902716 C1.20744293,0.026917731 1.27785586,0.0147510057 1.34868464,0.00760976356 C1.38537602,0.00401570173 1.41546697,0.0020386964 1.44578706,0.000961578776 C1.46177094,0.000407524367 1.47709825,9.66322973e-05 1.49242673,1.923894e-05 L9.4999779,1.20086042e-07 Z M11.4548662,23.5558198 C12.0376875,24.1445563 12.0328923,25.0942917 11.4441558,25.6771131 L5.056,32 L9.4999779,32.0000001 C10.279674,32.0000001 10.9204266,32.5948882 10.9931113,33.3555401 L10.9999779,33.5000001 C10.9999779,34.3284272 10.328405,35.0000001 9.4999779,35.0000001 L1.50000012,35.0000001 C0.671572995,35.0000001 1.20086042e-07,34.3284272 1.20086042e-07,33.5000001 L1.20086042e-07,25.5000001 C1.20086042e-07,24.671573 0.671572995,24.0000001 1.50000012,24.0000001 C2.32842724,24.0000001 3.00000012,24.671573 3.00000012,25.5000001 L3,29.814 L9.33357286,23.5451094 C9.92230942,22.962288 10.8720448,22.9670832 11.4548662,23.5558198 Z M25.7611307,23.5504525 L31.998,29.788 L31.9999112,25.5000001 C31.9999112,24.720304 32.5947993,24.0795514 33.3554512,24.0068667 L33.4999112,24.0000001 C34.3283384,24.0000001 34.9999112,24.671573 34.9999112,25.5000001 L34.9998542,33.3896758 C35.0000488,33.4036704 35.0000488,33.4176673 34.9998541,33.4316619 L34.9999112,33.5000001 C34.9999112,34.3284272 34.3283384,35.0000001 33.4999112,35.0000001 L25.4999335,35.0000001 C24.6715063,35.0000001 23.9999335,34.3284272 23.9999335,33.5000001 C23.9999335,32.671573 24.6715063,32.0000001 25.4999335,32.0000001 L29.968,32 L23.6398074,25.6717699 C23.0540217,25.0859827 23.0540231,24.1362352 23.6398103,23.5504496 C24.2255976,22.964664 25.175345,22.9646653 25.7611307,23.5504525 Z M33.4999112,1.20086042e-07 C34.3283384,1.20086042e-07 34.9999112,0.671572995 34.9999112,1.50000012 L34.9999112,9.50000012 C34.9999112,10.3284272 34.3283384,11.0000001 33.4999112,11.0000001 C32.6714841,11.0000001 31.9999112,10.3284272 31.9999112,9.50000012 L31.998,5.033 L25.6717087,11.3602144 C25.0859231,11.9460016 24.1361756,11.9460029 23.5503883,11.3602173 C22.9646011,10.7744317 22.9645998,9.82468423 23.5503854,9.23889698 L29.788,3 L25.4999335,3.00000012 C24.7202373,3.00000012 24.0794848,2.40511204 24.0068,1.64446013 L23.9999335,1.50000012 C23.9999335,0.671572995 24.6715063,1.20086042e-07 25.4999335,1.20086042e-07 L33.4999112,1.20086042e-07 Z" id="形状结合"></path>
                </g>
            </g>
        </g>
    </g>
</svg>