<?xml version="1.0" encoding="UTF-8"?>
<svg width="37px" height="36px" viewBox="0 0 37 36" version="1.1" xmlns="http://www.w3.org/2000/svg" xmlns:xlink="http://www.w3.org/1999/xlink">
    <title>编组 2备份 7</title>
    <g id="BI优化" stroke="none" stroke-width="1" fill="none" fill-rule="evenodd">
        <g id="全屏组件" transform="translate(-338.000000, -151.000000)">
            <g id="编组-2备份-7" transform="translate(338.900000, 151.000000)">
                <rect id="矩形" x="0" y="0" width="36" height="36"></rect>
                <path d="M12.2207521,11.4904069 L12.1990653,11.5304345 C12.1837786,11.5577793 12.1676608,11.5845962 12.1507458,11.6108512 C12.1439799,11.621585 12.1368367,11.6323651 12.1295394,11.6430719 C12.1098085,11.6718143 12.0893755,11.699679 12.0680277,11.7267895 C12.0579448,11.7397004 12.0475175,11.752492 12.0368475,11.7651492 C12.0135734,11.7927165 11.9894398,11.8193776 11.9643885,11.8451417 C11.961239,11.8483807 11.9580613,11.8516193 11.954866,11.854847 L11.9435198,11.8661867 C11.9186626,11.8907665 11.8929506,11.9144837 11.8664324,11.9372897 L11.954866,11.854847 C11.9103115,11.8998537 11.8636127,11.9414479 11.8150949,11.9796278 C11.798761,11.9923474 11.7821767,12.0048382 11.7653301,12.0169879 C11.7438123,12.0326691 11.7219938,12.0475449 11.699882,12.0617818 C11.6795422,12.0747202 11.658578,12.0875117 11.6372838,12.0997952 C11.6182499,12.1109032 11.5993938,12.1212231 11.5803696,12.1311083 C11.5548096,12.144306 11.5287218,12.1569393 11.5022263,12.1688262 C11.4880332,12.1752092 11.4742146,12.1811397 11.4603273,12.186853 L11.4408793,12.1947191 C11.4213162,12.202466 11.4015513,12.2098133 11.3815948,12.2167509 C11.3590365,12.2244842 11.337229,12.2314743 11.315302,12.2379535 C11.283313,12.2475593 11.2500841,12.2561866 11.216429,12.2636831 C11.2042101,12.2662577 11.1925115,12.2687127 11.1807904,12.271027 C11.1058988,12.2859503 11.0287648,12.2951713 10.9500701,12.2983296 C10.9317582,12.2990481 10.9140987,12.2994473 10.8964376,12.2995364 L2.88888642,12.2995556 C2.0604593,12.2995556 1.38888642,11.6279827 1.38888642,10.7995556 C1.38888642,9.97112843 2.0604593,9.29955556 2.88888642,9.29955556 L7.24099988,9.29899988 L0.944708541,3.06600185 C0.355971978,2.48318047 0.351176774,1.5334451 0.933998154,0.944708541 C1.51681953,0.355971978 2.4665549,0.351176774 3.05529146,0.933998154 L9.38799988,7.20299988 L9.3888642,2.79955556 C9.3888642,2.01985944 9.98375228,1.37910688 10.7444042,1.30642213 L10.8888642,1.29955556 C11.7172913,1.29955556 12.3888642,1.97112843 12.3888642,2.79955556 L12.3888451,10.7919822 C12.3896533,10.9520483 12.3649999,11.112243 12.3148516,11.2659699 C12.2910465,11.3390057 12.261831,11.4093255 12.2276764,11.4767187 L12.2207521,11.4904069 Z M10.8888642,23.6111111 C11.7172913,23.6111111 12.3888642,24.282684 12.3888642,25.1111111 L12.3888642,33.1111111 C12.3888642,33.9395382 11.7172913,34.6111111 10.8888642,34.6111111 C10.0604371,34.6111111 9.3888642,33.9395382 9.3888642,33.1111111 L9.38799988,28.7959999 L3.05529146,35.0660018 C2.4665549,35.6488232 1.51681953,35.644028 0.933998154,35.0552915 C0.351176774,34.4665549 0.355971978,33.5168195 0.944708541,32.9339982 L7.33099988,26.6109999 L2.88888642,26.6111111 C2.1091903,26.6111111 1.46843774,26.016223 1.395753,25.2555711 L1.38888642,25.1111111 C1.38888642,24.282684 2.0604593,23.6111111 2.88888642,23.6111111 L10.8888642,23.6111111 Z M33.2005356,23.6111111 C34.0289627,23.6111111 34.7005356,24.282684 34.7005356,25.1111111 C34.7005356,25.9395382 34.0289627,26.6111111 33.2005356,26.6111111 L28.7329999,26.6109999 L35.0606616,32.9393413 C35.6464473,33.5251286 35.6464459,34.474876 35.0606587,35.0606616 C34.4748714,35.6464473 33.525124,35.6464459 32.9393384,35.0606587 L26.7009999,28.8219999 L26.7005578,33.1111111 C26.7005578,33.8908072 26.1056697,34.5315598 25.3450178,34.6042445 L25.2005578,34.6111111 C24.3721307,34.6111111 23.7005578,33.9395382 23.7005578,33.1111111 L23.7005578,25.1111111 C23.7005578,24.282684 24.3721307,23.6111111 25.2005578,23.6111111 L33.2005356,23.6111111 Z M25.1110469,12.2995556 C24.2826198,12.2995556 23.6110469,11.6279827 23.6110469,10.7995556 L23.6110469,2.79955556 C23.6110469,1.97112843 24.2826198,1.29955556 25.1110469,1.29955556 C25.939474,1.29955556 26.6110469,1.97112843 26.6110469,2.79955556 L26.6119999,7.26599988 L32.9392495,0.939341301 C33.5250351,0.35355405 34.4747826,0.353552731 35.0605698,0.939338355 C35.6463571,1.52512398 35.6463584,2.47487145 35.0605728,3.0606587 L28.8219999,9.29899988 L33.1110247,9.29955556 C33.8907208,9.29955556 34.5314734,9.89444364 34.6041581,10.6550955 L34.6110247,10.7995556 C34.6110247,11.6279827 33.9394518,12.2995556 33.1110247,12.2995556 L25.1110469,12.2995556 Z" id="形状结合" fill="#0B8CF0" fill-rule="nonzero"></path>
            </g>
        </g>
    </g>
</svg>